<svg xmlns="http://www.w3.org/2000/svg" viewBox="0 0 39 34">
    <defs>
        <path id="a" d="M.265.277H25.63v26.668H.265z" />
    </defs>
    <g fill="none" fill-rule="evenodd">
        <g transform="translate(-30 -2544)">
            <g transform="translate(0 2528)">
                <g transform="translate(30 16)">
                    <g transform="translate(11.97 .065)">
                        <mask id="b" fill="white">
                            <use
                                xmlns:xlink="http://www.w3.org/1999/xlink"
                                xlink:href="#a"
                            />
                        </mask>
                        <path
                            d="M25.631 13.633c0-7.377-6.046-13.356-13.504-13.356-5.118 0-9.571 2.81-11.862 6.948.4-.03.81-.051 1.221-.051 7.46 0 13.508 5.975 13.508 13.354 0 2.333-.599 4.512-1.652 6.417 6.885-.607 12.29-6.334 12.29-13.312"
                            fill="#01A0E9"
                            mask="url(#b)"
                        />
                    </g>
                    <path
                        d="M23.223 28.885c-.147.106-.31.191-.472.281-.382.201-.776.375-1.192.522a8.508 8.508 0 0 1-1.715.401c-2.518.32-5.003-.526-6.738-2.19a7.442 7.442 0 0 1-1.813-2.73c-1.214-3.19-.04-6.657 2.657-8.645-4.1 1.501-6.249 5.931-4.891 9.993-.107-.154-.207-.315-.304-.47-2.53-4.383-1.068-9.971 3.277-12.481 4.157-2.393 9.438-1.101 12.112 2.848-.021-.029-.032-.054-.05-.082-3.098-5.374-9.931-7.235-15.247-4.17-3.113 1.788-5.011 4.861-5.445 8.175a10.009 10.009 0 0 1-.39-2.781c0-5.25 4.015-9.583 9.223-10.266C5.365 7.923 0 13.624 0 20.575c0 7.368 6.046 13.348 13.494 13.348 5.12 0 9.57-2.82 11.859-6.972a7.799 7.799 0 0 1-2.13 1.934"
                        fill="#01A0E9"
                    />
                </g>
            </g>
        </g>
    </g>
</svg>
